<svg id="Group_53" data-name="Group 53" xmlns="http://www.w3.org/2000/svg" width="83.602" height="464.279" viewBox="0 0 83.602 464.279">
  <path id="Path_98" data-name="Path 98" d="M40.077,380.677V0H0V420.757a40.124,40.124,0,0,0,40.077-40.079" transform="translate(0 0)" fill="#f2e2d6"/>
  <path id="Path_99" data-name="Path 99" d="M54.586,380.677V0H44.362V380.677A44.419,44.419,0,0,1,0,425.039v10.224a54.655,54.655,0,0,0,54.586-54.586" transform="translate(0 0)" fill="#f2e2d6"/>
  <path id="Path_100" data-name="Path 100" d="M69.094,380.677V0H58.87V380.677A58.936,58.936,0,0,1,0,439.547v10.224A69.177,69.177,0,0,0,69.094,380.677Z" transform="translate(0 0)" fill="#f2e2d6"/>
  <path id="Path_101" data-name="Path 101" d="M83.6,380.677V0H73.378V380.677A73.467,73.467,0,0,1,0,454.055v10.224a83.7,83.7,0,0,0,83.6-83.6" transform="translate(0 0)" fill="#f2e2d6"/>
  <path id="Path_102" data-name="Path 102" d="M0,464.279V454.055a73.467,73.467,0,0,0,73.378-73.378V0H83.6V380.677A83.7,83.7,0,0,1,0,464.279" transform="translate(0 0)" fill="#e5b894"/>
  <path id="Path_103" data-name="Path 103" d="M69.094,380.677V0H58.87V380.677A58.936,58.936,0,0,1,0,439.547v10.224A69.177,69.177,0,0,0,69.094,380.677Z" transform="translate(0 0)" fill="#c5641f"/>
  <path id="Path_104" data-name="Path 104" d="M0,435.263V425.039a44.419,44.419,0,0,0,44.362-44.362V0H54.586V380.677A54.655,54.655,0,0,1,0,435.263" transform="translate(0 0)" fill="#ab3f32"/>
  <path id="Path_105" data-name="Path 105" d="M0,420.757V0H40.077V380.677A40.124,40.124,0,0,1,0,420.757" transform="translate(0 0)" fill="#e9afa8"/>
</svg>
